<svg width="64" height="64" fill="none" xmlns="http://www.w3.org/2000/svg"><circle cx="31.774" cy="31.678" r="31.678" fill="url(#paint0_linear)"/><path d="M42.197 19.007H22.934c-2.174 0-3.831 1.657-3.831 3.832v19.263c0 2.174 1.657 3.831 3.831 3.831h19.263c2.175 0 3.832-1.657 3.832-3.831V22.839c0-2.175-1.657-3.832-3.832-3.832zm-9.631 21.541c4.453 0 8.078-3.521 8.078-7.767 0-.725-.104-1.554-.31-2.175h2.277v10.978c0 .518-.414 1.035-1.035 1.035h-18.02a1.038 1.038 0 01-1.036-1.035V30.502h2.382a7.885 7.885 0 00-.31 2.175c-.104 4.35 3.52 7.871 7.974 7.871zm0-3.107c-2.9 0-5.178-2.278-5.178-5.074 0-2.797 2.278-5.075 5.178-5.075s5.178 2.278 5.178 5.075c0 2.9-2.278 5.074-5.178 5.074zm9.942-11.081a1.15 1.15 0 01-1.14 1.14h-2.9a1.15 1.15 0 01-1.138-1.14v-2.796c0-.622.517-1.14 1.139-1.14h2.9c.621 0 1.139.518 1.139 1.14v2.796z" fill="#fff"/><defs><linearGradient id="paint0_linear" x1="13.559" y1="56.229" x2="55.532" y2="12.671" gradientUnits="userSpaceOnUse"><stop stop-color="#EEA054"/><stop offset=".503" stop-color="#D64763"/><stop offset="1" stop-color="#B62A99"/></linearGradient></defs></svg>