<svg width="64" height="64" fill="none" xmlns="http://www.w3.org/2000/svg"><circle cx="31.678" cy="31.678" r="31.678" fill="#2F89CE"/><path d="M14.81 32.27l7.284 2.716 2.839 9.135c.123.617.864.74 1.358.37l4.073-3.333c.37-.37.988-.37 1.481 0l7.283 5.308c.494.37 1.235.124 1.358-.493l5.431-25.923c.124-.617-.493-1.234-1.11-.987L14.81 30.666c-.741.247-.741 1.358 0 1.605zm9.752 1.359l14.32-8.765c.246-.123.493.247.246.37L27.401 36.222c-.37.37-.74.864-.74 1.481l-.37 2.963c0 .37-.618.493-.741 0l-1.481-5.432c-.37-.617-.124-1.357.493-1.604z" fill="#fff"/></svg>